<svg xmlns="http://www.w3.org/2000/svg" width="24px" height="24px" viewBox="-4 -2 24 24" fill="none" color="#000"><path d="M 7 12 C 7 11.448 7.448 11 8 11 C 8.552 11 9 11.448 9 12 L 9 15 C 9 15.552 8.552 16 8 16 C 7.448 16 7 15.552 7 15 L 7 12 Z" fill="currentColor" fill-rule="nonzero"></path><path d="M 14 7 L 13 7 L 13 5 C 13 2.239 10.761 0 8 0 C 5.239 0 3 2.239 3 5 L 3 7 L 2 7 C 0.895 7 0 7.895 0 9 L 0 18 C 0 19.105 0.895 20 2 20 L 14 20 C 15.105 20 16 19.105 16 18 L 16 9 C 16 7.895 15.105 7 14 7 Z M 11.5 5 L 11.5 7 L 4.5 7 L 4.5 5 C 4.5 3.067 6.067 1.5 8 1.5 C 9.933 1.5 11.5 3.067 11.5 5 Z M 2 8.25 C 1.586 8.25 1.25 8.586 1.25 9 L 1.25 18 C 1.25 18.414 1.586 18.75 2 18.75 L 14 18.75 C 14.414 18.75 14.75 18.414 14.75 18 L 14.75 9 C 14.75 8.586 14.414 8.25 14 8.25 L 2 8.25 Z" fill="currentColor" fill-rule="evenodd"></path></svg>