<svg width="2074" height="501" viewBox="0 0 2074 501" fill="none" xmlns="http://www.w3.org/2000/svg">
<path d="M854.25 115L1139 198.5L854.25 282V115Z" fill="#FFCEE6"/>
<path d="M854.25 115H284.75L0 198.5L284.75 282L0 365.5L284.75 449H854.25L1139 365.5L854.25 282L284.75 449V282L854.25 115Z" fill="#FFCEE6"/>
<path d="M1789.25 0L2074 83.5L1789.25 167V0Z" fill="#FFCEE6"/>
<path d="M1789.25 0H1219.75L935 83.5L1219.75 167L935 250.5L1219.75 334H1789.25L2074 250.5L1789.25 167L1219.75 334V167L1789.25 0Z" fill="#FFCEE6"/>
<path d="M1789.25 334L2074 417.5L1789.25 501V334Z" fill="#FFCEE6"/>
<path d="M1789.25 334H1219.75L935 417.5L1219.75 501L1789.25 334Z" fill="#FFCEE6"/>
</svg>
